<svg width="173" height="48" viewBox="0 0 173 48" fill="none" xmlns="http://www.w3.org/2000/svg">
<g clip-path="url(#clip0_428_475)">
<path d="M52.4614 38.2086L32.318 3.26422C31.1617 1.25044 28.9941 0 26.6717 0C25.5346 0 24.4097 0.302916 23.4203 0.876032C22.4091 1.46005 21.5998 2.28883 21.035 3.27634L19.1553 6.53328L31.054 27.1752H18.6182L9.41078 43.1485C8.48908 44.7515 6.43761 45.3004 4.83974 44.3747C3.24307 43.4538 2.69271 41.3964 3.61442 39.7958L19.1432 12.8569L17.3251 9.70299L0.871065 38.2086C-0.92397 41.3237 0.14531 45.3247 3.25638 47.1228C4.2797 47.7165 5.39857 47.9952 6.50172 47.9952C8.7564 47.9952 10.9506 46.8283 12.1553 44.737L20.4483 30.3473H36.5419L23.7783 8.20174C22.8566 6.60235 23.407 4.54616 25.0036 3.62408C25.5129 3.32965 26.0886 3.17334 26.6717 3.17334C27.868 3.17334 28.9796 3.81674 29.5759 4.8515L49.7168 39.7958C50.6421 41.3964 50.0906 43.4538 48.4915 44.3747C47.9835 44.6704 47.4053 44.8254 46.8235 44.8254C45.6284 44.8254 44.5156 44.1845 43.9204 43.1485L40.4078 37.0526H20.2536L18.4247 40.2248H38.5777L41.1783 44.737C42.3383 46.7496 44.4998 48 46.8235 48C47.9629 48 49.0866 47.6947 50.0773 47.1228C53.1895 45.3247 54.2576 41.3237 52.4614 38.2086Z" fill="url(#paint0_linear_428_475)"/>
</g>
<path d="M80.5052 15.2812L73.7083 35H69.5989L78.1614 12.25H80.7864L80.5052 15.2812ZM86.1927 35L79.3802 15.2812L79.0833 12.25H81.7239L90.3177 35H86.1927ZM85.8646 26.5625V29.6719H73.4896V26.5625H85.8646ZM96.2708 21.3125V35H92.5052V18.0938H96.0989L96.2708 21.3125ZM101.443 17.9844L101.411 21.4844C101.182 21.4427 100.932 21.4115 100.661 21.3906C100.401 21.3698 100.141 21.3594 99.8802 21.3594C99.2344 21.3594 98.6666 21.4531 98.1771 21.6406C97.6875 21.8177 97.276 22.0781 96.9427 22.4219C96.6198 22.7552 96.3698 23.1615 96.1927 23.6406C96.0156 24.1198 95.9114 24.6562 95.8802 25.25L95.0208 25.3125C95.0208 24.25 95.125 23.2656 95.3333 22.3594C95.5416 21.4531 95.8541 20.6562 96.2708 19.9688C96.6979 19.2812 97.2291 18.7448 97.8646 18.3594C98.5104 17.974 99.2552 17.7812 100.099 17.7812C100.328 17.7812 100.573 17.8021 100.833 17.8438C101.104 17.8854 101.307 17.9323 101.443 17.9844ZM112.333 18.0938V20.8438H102.802V18.0938H112.333ZM105.552 13.9531H109.318V30.3281C109.318 30.849 109.391 31.25 109.536 31.5312C109.693 31.8021 109.906 31.9844 110.177 32.0781C110.448 32.1719 110.766 32.2188 111.13 32.2188C111.391 32.2188 111.641 32.2031 111.88 32.1719C112.12 32.1406 112.312 32.1094 112.458 32.0781L112.474 34.9531C112.161 35.0469 111.797 35.1302 111.38 35.2031C110.974 35.276 110.505 35.3125 109.974 35.3125C109.109 35.3125 108.344 35.1615 107.677 34.8594C107.01 34.5469 106.49 34.0417 106.115 33.3438C105.74 32.6458 105.552 31.7188 105.552 30.5625V13.9531ZM132.443 15.2812L125.646 35H121.536L130.099 12.25H132.724L132.443 15.2812ZM138.13 35L131.318 15.2812L131.021 12.25H133.661L142.255 35H138.13ZM137.802 26.5625V29.6719H125.427V26.5625H137.802ZM153.443 26.5156H147.521V23.4062H153.443C154.474 23.4062 155.307 23.2396 155.943 22.9062C156.578 22.5729 157.042 22.1146 157.333 21.5312C157.635 20.9375 157.786 20.2604 157.786 19.5C157.786 18.7812 157.635 18.1094 157.333 17.4844C157.042 16.849 156.578 16.3385 155.943 15.9531C155.307 15.5677 154.474 15.375 153.443 15.375H148.724V35H144.802V12.25H153.443C155.203 12.25 156.698 12.5625 157.927 13.1875C159.167 13.8021 160.109 14.6562 160.755 15.75C161.401 16.8333 161.724 18.0729 161.724 19.4688C161.724 20.9375 161.401 22.1979 160.755 23.25C160.109 24.3021 159.167 25.1094 157.927 25.6719C156.698 26.2344 155.203 26.5156 153.443 26.5156ZM169.427 12.25V35H165.505V12.25H169.427Z" fill="#AEAEB2"/>
<defs>
<linearGradient id="paint0_linear_428_475" x1="1.35412" y1="-9.31902e-07" x2="47.2125" y2="52.5298" gradientUnits="userSpaceOnUse">
<stop stop-color="#0FEFFD"/>
<stop offset="0.723958" stop-color="#FF00F5"/>
<stop offset="1" stop-color="#0FEFFD" stop-opacity="0"/>
</linearGradient>
<clipPath id="clip0_428_475">
<rect width="53.3333" height="48" fill="white"/>
</clipPath>
</defs>
</svg>
